# xmcd CD database file
#
# Track frame offsets:
#	150
#	15881
#	27785
#	44693
#	62072
#	84972
#	104822
#	122182
#	139993
#	154622
#	167799
#	195239
#	217272
#	233210
#	255647
#	279310
#
# Disc length: 3976 seconds
#
# Revision: 0
# Processed by: cddbd v1.5.2PL0 Copyright (c) Steve Scherf et al.
# Submitted via: CDex 1.50
#
DISCID=dd0f8610
DTITLE=Lämpel's Jatz-Orchester - My blue heaven
DYEAR=1999
DGENRE=Jazz
TTITLE0=trad. - Lonesome Railroad Blues
TTITLE1=K. Hodges - Everybody Knows
TTITLE2=Hawkins_Johnson - Tuxedo Junction
TTITLE3=Donaldson_Whiting - My Blue Heaven
TTITLE4=J. Oliver - Working Man Blues
TTITLE5=Chaplin_Cahn - Bei mir bist du schön
TTITLE6=H. Hancock - Watermelon Man
TTITLE7=Whitcup_Douglas_Gierlach - Sunshine of Love
TTITLE8=W. Spivery - Operator
TTITLE9=K. Zarmutek - Black Sax
TTITLE10=D. Ellington - Immigration Blues
TTITLE11=Pinkard_Bernie - Sweet Georgia Brown
TTITLE12=Armstrong - Potatoe Head Blues
TTITLE13=trad. - Just A Closer Walk
TTITLE14=Williams_Palmer - I've Found A New Baby 
TTITLE15=B. Withers - Lean On Me
EXTD=YEAR: 1999
EXTT0=
EXTT1=
EXTT2=
EXTT3=
EXTT4=
EXTT5=
EXTT6=
EXTT7=
EXTT8=
EXTT9=
EXTT10=
EXTT11=
EXTT12=
EXTT13=
EXTT14=
EXTT15=
PLAYORDER=
